<mxfile host="app.diagrams.net" modified="2023-06-14T10:32:11.290Z" agent="Mozilla/5.0 (Windows NT 10.0; Win64; x64) AppleWebKit/537.36 (KHTML, like Gecko) Chrome/114.0.0.0 Safari/537.36" etag="dNpHTNGpfJTMzhK2POt6" version="21.3.8" type="device">
  <diagram name="Страница 1" id="HE8w1pj0rO7jNCgZfmQC">
    <mxGraphModel dx="2390" dy="1327" grid="1" gridSize="10" guides="1" tooltips="1" connect="1" arrows="1" fold="1" page="1" pageScale="1" pageWidth="1200" pageHeight="1600" math="0" shadow="0">
      <root>
        <mxCell id="0" />
        <mxCell id="1" parent="0" />
        <mxCell id="jmQ7OI4hzb0pj3148t5v-4" style="edgeStyle=orthogonalEdgeStyle;rounded=0;orthogonalLoop=1;jettySize=auto;html=1;entryX=0.5;entryY=0;entryDx=0;entryDy=0;" edge="1" parent="1" source="jmQ7OI4hzb0pj3148t5v-2" target="jmQ7OI4hzb0pj3148t5v-3">
          <mxGeometry relative="1" as="geometry" />
        </mxCell>
        <mxCell id="jmQ7OI4hzb0pj3148t5v-2" value="Начало функции setup()" style="ellipse;whiteSpace=wrap;html=1;" vertex="1" parent="1">
          <mxGeometry x="510" y="110" width="180" height="70" as="geometry" />
        </mxCell>
        <mxCell id="jmQ7OI4hzb0pj3148t5v-6" style="edgeStyle=orthogonalEdgeStyle;rounded=0;orthogonalLoop=1;jettySize=auto;html=1;entryX=0.5;entryY=0;entryDx=0;entryDy=0;" edge="1" parent="1" source="jmQ7OI4hzb0pj3148t5v-3" target="jmQ7OI4hzb0pj3148t5v-5">
          <mxGeometry relative="1" as="geometry" />
        </mxCell>
        <mxCell id="jmQ7OI4hzb0pj3148t5v-3" value="Настройка пинов для моторов" style="rounded=0;whiteSpace=wrap;html=1;" vertex="1" parent="1">
          <mxGeometry x="540" y="230" width="120" height="60" as="geometry" />
        </mxCell>
        <mxCell id="jmQ7OI4hzb0pj3148t5v-16" style="edgeStyle=orthogonalEdgeStyle;rounded=0;orthogonalLoop=1;jettySize=auto;html=1;entryX=0.5;entryY=0;entryDx=0;entryDy=0;" edge="1" parent="1" source="jmQ7OI4hzb0pj3148t5v-5" target="jmQ7OI4hzb0pj3148t5v-13">
          <mxGeometry relative="1" as="geometry" />
        </mxCell>
        <mxCell id="jmQ7OI4hzb0pj3148t5v-5" value="Инициализация последовательной связи с компьютером" style="rounded=0;whiteSpace=wrap;html=1;" vertex="1" parent="1">
          <mxGeometry x="540" y="340" width="120" height="60" as="geometry" />
        </mxCell>
        <mxCell id="jmQ7OI4hzb0pj3148t5v-7" value="" style="endArrow=none;dashed=1;html=1;rounded=0;entryX=0.5;entryY=1;entryDx=0;entryDy=0;" edge="1" parent="1" target="jmQ7OI4hzb0pj3148t5v-9">
          <mxGeometry width="50" height="50" relative="1" as="geometry">
            <mxPoint x="660" y="370" as="sourcePoint" />
            <mxPoint x="790" y="370" as="targetPoint" />
          </mxGeometry>
        </mxCell>
        <mxCell id="jmQ7OI4hzb0pj3148t5v-9" value="Serial.begin(115200);" style="shape=partialRectangle;whiteSpace=wrap;html=1;bottom=1;right=1;left=1;top=0;fillColor=none;routingCenterX=-0.5;rotation=90;verticalAlign=middle;labelPosition=center;verticalLabelPosition=middle;align=center;horizontal=0;spacingLeft=70;" vertex="1" parent="1">
          <mxGeometry x="710" y="340" width="70" height="60" as="geometry" />
        </mxCell>
        <mxCell id="jmQ7OI4hzb0pj3148t5v-29" value="" style="edgeStyle=orthogonalEdgeStyle;rounded=0;orthogonalLoop=1;jettySize=auto;html=1;" edge="1" parent="1" source="jmQ7OI4hzb0pj3148t5v-13" target="jmQ7OI4hzb0pj3148t5v-18">
          <mxGeometry relative="1" as="geometry" />
        </mxCell>
        <mxCell id="jmQ7OI4hzb0pj3148t5v-13" value="Инициализация шины I2C" style="rounded=0;whiteSpace=wrap;html=1;" vertex="1" parent="1">
          <mxGeometry x="540" y="440" width="120" height="60" as="geometry" />
        </mxCell>
        <mxCell id="jmQ7OI4hzb0pj3148t5v-14" value="" style="endArrow=none;dashed=1;html=1;rounded=0;entryX=0.5;entryY=1;entryDx=0;entryDy=0;" edge="1" parent="1" target="jmQ7OI4hzb0pj3148t5v-15">
          <mxGeometry width="50" height="50" relative="1" as="geometry">
            <mxPoint x="660" y="470" as="sourcePoint" />
            <mxPoint x="790" y="470" as="targetPoint" />
          </mxGeometry>
        </mxCell>
        <mxCell id="jmQ7OI4hzb0pj3148t5v-15" value="Wire.begin();" style="shape=partialRectangle;whiteSpace=wrap;html=1;bottom=1;right=1;left=1;top=0;fillColor=none;routingCenterX=-0.5;rotation=90;verticalAlign=middle;labelPosition=center;verticalLabelPosition=middle;align=center;horizontal=0;spacingLeft=25;" vertex="1" parent="1">
          <mxGeometry x="710" y="440" width="70" height="60" as="geometry" />
        </mxCell>
        <mxCell id="jmQ7OI4hzb0pj3148t5v-32" style="edgeStyle=orthogonalEdgeStyle;rounded=0;orthogonalLoop=1;jettySize=auto;html=1;entryX=0.5;entryY=0;entryDx=0;entryDy=0;" edge="1" parent="1" source="jmQ7OI4hzb0pj3148t5v-18" target="jmQ7OI4hzb0pj3148t5v-21">
          <mxGeometry relative="1" as="geometry" />
        </mxCell>
        <mxCell id="jmQ7OI4hzb0pj3148t5v-18" value="MPU6050_ResetWake();" style="shape=process;whiteSpace=wrap;html=1;backgroundOutline=1;" vertex="1" parent="1">
          <mxGeometry x="505" y="540" width="190" height="70" as="geometry" />
        </mxCell>
        <mxCell id="jmQ7OI4hzb0pj3148t5v-36" style="edgeStyle=orthogonalEdgeStyle;rounded=0;orthogonalLoop=1;jettySize=auto;html=1;entryX=0.5;entryY=0;entryDx=0;entryDy=0;" edge="1" parent="1" source="jmQ7OI4hzb0pj3148t5v-20" target="jmQ7OI4hzb0pj3148t5v-24">
          <mxGeometry relative="1" as="geometry" />
        </mxCell>
        <mxCell id="jmQ7OI4hzb0pj3148t5v-20" value="MPU6050_SetDLPF(6);" style="shape=process;whiteSpace=wrap;html=1;backgroundOutline=1;" vertex="1" parent="1">
          <mxGeometry x="505" y="900" width="190" height="70" as="geometry" />
        </mxCell>
        <mxCell id="jmQ7OI4hzb0pj3148t5v-33" style="edgeStyle=orthogonalEdgeStyle;rounded=0;orthogonalLoop=1;jettySize=auto;html=1;entryX=0.5;entryY=0;entryDx=0;entryDy=0;" edge="1" parent="1" source="jmQ7OI4hzb0pj3148t5v-21" target="jmQ7OI4hzb0pj3148t5v-22">
          <mxGeometry relative="1" as="geometry" />
        </mxCell>
        <mxCell id="jmQ7OI4hzb0pj3148t5v-21" value="MPU6050_SetGains(0, 1);" style="shape=process;whiteSpace=wrap;html=1;backgroundOutline=1;" vertex="1" parent="1">
          <mxGeometry x="505" y="630" width="190" height="70" as="geometry" />
        </mxCell>
        <mxCell id="jmQ7OI4hzb0pj3148t5v-34" style="edgeStyle=orthogonalEdgeStyle;rounded=0;orthogonalLoop=1;jettySize=auto;html=1;entryX=0.5;entryY=0;entryDx=0;entryDy=0;" edge="1" parent="1" source="jmQ7OI4hzb0pj3148t5v-22" target="jmQ7OI4hzb0pj3148t5v-23">
          <mxGeometry relative="1" as="geometry" />
        </mxCell>
        <mxCell id="jmQ7OI4hzb0pj3148t5v-22" value="MPU6050_SetDLPF(0);" style="shape=process;whiteSpace=wrap;html=1;backgroundOutline=1;" vertex="1" parent="1">
          <mxGeometry x="505" y="720" width="190" height="70" as="geometry" />
        </mxCell>
        <mxCell id="jmQ7OI4hzb0pj3148t5v-35" style="edgeStyle=orthogonalEdgeStyle;rounded=0;orthogonalLoop=1;jettySize=auto;html=1;entryX=0.5;entryY=0;entryDx=0;entryDy=0;" edge="1" parent="1" source="jmQ7OI4hzb0pj3148t5v-23" target="jmQ7OI4hzb0pj3148t5v-20">
          <mxGeometry relative="1" as="geometry" />
        </mxCell>
        <mxCell id="jmQ7OI4hzb0pj3148t5v-23" value="MPU6050_OffsetCal();" style="shape=process;whiteSpace=wrap;html=1;backgroundOutline=1;" vertex="1" parent="1">
          <mxGeometry x="505" y="810" width="190" height="70" as="geometry" />
        </mxCell>
        <mxCell id="jmQ7OI4hzb0pj3148t5v-37" style="edgeStyle=orthogonalEdgeStyle;rounded=0;orthogonalLoop=1;jettySize=auto;html=1;entryX=0.5;entryY=0;entryDx=0;entryDy=0;" edge="1" parent="1" source="jmQ7OI4hzb0pj3148t5v-24" target="jmQ7OI4hzb0pj3148t5v-25">
          <mxGeometry relative="1" as="geometry" />
        </mxCell>
        <mxCell id="jmQ7OI4hzb0pj3148t5v-24" value="Ограничение крайних значений ПИД" style="rounded=0;whiteSpace=wrap;html=1;" vertex="1" parent="1">
          <mxGeometry x="540" y="990" width="120" height="50" as="geometry" />
        </mxCell>
        <mxCell id="jmQ7OI4hzb0pj3148t5v-38" style="edgeStyle=orthogonalEdgeStyle;rounded=0;orthogonalLoop=1;jettySize=auto;html=1;entryX=0.5;entryY=0;entryDx=0;entryDy=0;" edge="1" parent="1" source="jmQ7OI4hzb0pj3148t5v-25" target="jmQ7OI4hzb0pj3148t5v-26">
          <mxGeometry relative="1" as="geometry" />
        </mxCell>
        <mxCell id="jmQ7OI4hzb0pj3148t5v-25" value="Настройка порта для управления звукоизлучателем" style="rounded=0;whiteSpace=wrap;html=1;" vertex="1" parent="1">
          <mxGeometry x="540" y="1060" width="120" height="60" as="geometry" />
        </mxCell>
        <mxCell id="jmQ7OI4hzb0pj3148t5v-26" value="Конец функции setup()" style="ellipse;whiteSpace=wrap;html=1;" vertex="1" parent="1">
          <mxGeometry x="510" y="1140" width="180" height="70" as="geometry" />
        </mxCell>
        <mxCell id="jmQ7OI4hzb0pj3148t5v-27" value="" style="endArrow=none;dashed=1;html=1;rounded=0;entryX=0.5;entryY=1;entryDx=0;entryDy=0;" edge="1" parent="1" target="jmQ7OI4hzb0pj3148t5v-28">
          <mxGeometry width="50" height="50" relative="1" as="geometry">
            <mxPoint x="660" y="1020" as="sourcePoint" />
            <mxPoint x="780" y="1020" as="targetPoint" />
          </mxGeometry>
        </mxCell>
        <mxCell id="jmQ7OI4hzb0pj3148t5v-28" value="&lt;div&gt;pid.SetMode(AUTOMATIC);&lt;/div&gt;&lt;div&gt;&lt;span style=&quot;background-color: initial;&quot;&gt;pid.SetSampleTime(10);&lt;/span&gt;&lt;/div&gt;&lt;div&gt;&lt;span style=&quot;background-color: initial;&quot;&gt;pid.SetOutputLimits(-255, 255);&lt;/span&gt;&lt;/div&gt;" style="shape=partialRectangle;whiteSpace=wrap;html=1;bottom=1;right=1;left=1;top=0;fillColor=none;routingCenterX=-0.5;rotation=90;verticalAlign=middle;labelPosition=center;verticalLabelPosition=middle;align=center;horizontal=0;spacingLeft=100;" vertex="1" parent="1">
          <mxGeometry x="720" y="990" width="70" height="60" as="geometry" />
        </mxCell>
      </root>
    </mxGraphModel>
  </diagram>
</mxfile>
